.
 
http://www.scenetime.com    -   SceneTime [ We been having it ] !!!


How come you press harder on a remote control when you know the battery is dead? so you better seed to get speed ;)

        Seed back for speed


...................................NFO:.................................................[img]http://img146.imageshack.us/img146/1406/friendswithbenefits2011b.jpg[/img]

[color=blue][size=4][b]Friends.with.Benefits.2011.TS.FIXED.XVID.AC3.Hive-CM8[/b][/size][/color]


[b]Thx Hive


CM8 Doing It Right The First Time :D

Sources:

Video: Russian Seks.po.dryjbe.2011.D.CAMRip
Audio: Imagines Line
thx

Encode:

well russian video was nice but way overbrightened,overcontrasted,black not black and aspect was a bit off.
Had to fix a lot to get all in shape as it should be, cut into parts and made all parts differently as needed.
Also blurred the two 10sec spots that were marked during the cutting.
Imagines Audio was very nice, didnt need much cleaning, still did the usual.
Found still a lot oos spots which i fixed, everything should now be lipsync.
got very nice
enjoy

Video: 720x288 @bitrate 1800 2pass
Audio: English AC3 2.0 Stereo
Sample: yes 2 included [/b]


[url]http://www.imdb.com/title/tt1632708/[/url]


General
Complete name                    : Friends.with.Benefits.2011.TS.FIXED.XVID.AC3.Hive-CM8.avi
Format                           : AVI
Format/Info                      : Audio Video Interleave
File size                        : 1.48 GiB
Duration                         : 1h 42mn
Overall bit rate                 : 2 065 Kbps
Writing application              : Nandub v1.0rc2
Writing library                  : Nandub build 1853/release

Video
ID                               : 0
Format                           : MPEG-4 Visual
Format profile                   : Advanced Simple@L5
Format settings, BVOP            : 2
Format settings, QPel            : Yes
Format settings, GMC             : No warppoints
Format settings, Matrix          : Default (H.263)
Muxing mode                      : Packed bitstream
Codec ID                         : XVID
Codec ID/Hint                    : XviD
Duration                         : 1h 42mn
Bit rate                         : 1 800 Kbps
Width                            : 720 pixels
Height                           : 288 pixels
Display aspect ratio             : 2.500
Frame rate                       : 25.000 fps
Color space                      : YUV
Chroma subsampling               : 4:2:0
Bit depth                        : 8 bits
Scan type                        : Progressive
Compression mode                 : Lossy
Bits/(Pixel*Frame)               : 0.347
Stream size                      : 1.29 GiB (87%)
Writing library                  : XviD 1.2.1 (UTC 2008-12-04)

Audio
ID                               : 1
Format                           : AC-3
Format/Info                      : Audio Coding 3
Mode extension                   : CM (complete main)
Codec ID                         : 2000
Duration                         : 1h 42mn
Bit rate mode                    : Constant
Bit rate                         : 256 Kbps
Channel(s)                       : 2 channels
Channel positions                : Front: L R
Sampling rate                    : 48.0 KHz
Bit depth                        : 16 bits
Compression mode                 : Lossy
Stream size                      : 188 MiB (12%)
Alignment                        : Split accross interleaves
Interleave, duration             : 40 ms (1.00 video frame)
Interleave, preload duration     : 500 ms


Justin Timberlake	... 	Dylan
Mila Kunis	... 	Jamie
Patricia Clarkson	... 	Lorna
Jenna Elfman	... 	Annie
Bryan Greenberg	... 	Parker
Richard Jenkins	... 	Mr. Harper
Woody Harrelson	... 	Tommy


While trying to avoid the clichs of Hollywood romantic comedies, Dylan and Jamie 
soon discover however that adding the act of sex to their friendship does lead to complications. 
  


[img]http://img163.imageshack.us/img163/7126/frfrx.png[/img]
[img]http://img13.imageshack.us/img13/7480/frfrfrfrw.png[/img]





Greetz

ViSiON,SANTi,3LT0N,MAGNET,THC,T0XiC,LKRG,FANTASIA-PLAY,FANTASIA-M,BHRG,IMAGiNE,WBZ,FLAWL3SS,NOVA,
D2U,Vik,Rapeseed,SAFC,goldadvance,MEMORY100,KaN1vE,Unevano,Pinnz,Wayne,cedrict wink,
Mr Hive and all P2P groups
Great Work Guys :D

FYS

CM8@hushmail.com